<svg xmlns="http://www.w3.org/2000/svg" width="131" height="42" fill="none"><g clip-path="url(#a)"><path fill="#fff" d="M42 0H0v42h42V0Z"/><path fill="#AD7E5C" d="m32.903 20.601-.938 3.5H13.653L8.67 5.506h3.626L16.338 20.6h16.565Z"/><path fill="#518581" d="m31.402 26.2-.938 3.5H9.607l-.938-3.5h22.733Z"/><path fill="#A6D8D1" d="m29.9 31.801-.938 3.5h-14.37l-.939-3.5H29.9Z"/></g><path fill="#151411" d="M54 12.216h3.264v15h7.656v2.88H54v-17.88ZM70.727 30.384c-1.376 0-2.472-.336-3.288-1.008-.8-.672-1.2-1.584-1.2-2.736 0-1.104.376-2.016 1.128-2.736.752-.72 1.88-1.2 3.384-1.44l3.888-.624v-.432a1.75 1.75 0 0 0-.672-1.416c-.432-.368-1.008-.552-1.728-.552-.672 0-1.272.184-1.8.552a3.083 3.083 0 0 0-1.128 1.416l-2.568-1.248c.384-1.024 1.088-1.848 2.112-2.472 1.024-.624 2.192-.936 3.504-.936 1.056 0 1.992.2 2.808.6.832.384 1.472.936 1.92 1.656.464.704.696 1.504.696 2.4v8.688h-2.976v-1.392c-1.024 1.12-2.384 1.68-4.08 1.68Zm-1.224-3.864c0 .448.168.808.504 1.08.336.256.768.384 1.296.384.976 0 1.776-.304 2.4-.912.624-.624.936-1.392.936-2.304v-.528l-3.288.552c-.624.128-1.088.336-1.392.624-.304.272-.456.64-.456 1.104ZM80.69 11.928h3.143v18.168H80.69V11.928ZM90.696 30.384c-1.376 0-2.472-.336-3.288-1.008-.8-.672-1.2-1.584-1.2-2.736 0-1.104.376-2.016 1.128-2.736.752-.72 1.88-1.2 3.384-1.44l3.888-.624v-.432a1.75 1.75 0 0 0-.672-1.416c-.432-.368-1.008-.552-1.728-.552-.672 0-1.272.184-1.8.552a3.083 3.083 0 0 0-1.128 1.416l-2.568-1.248c.384-1.024 1.088-1.848 2.112-2.472 1.024-.624 2.192-.936 3.504-.936 1.056 0 1.992.2 2.808.6.832.384 1.472.936 1.92 1.656.464.704.696 1.504.696 2.4v8.688h-2.976v-1.392c-1.024 1.12-2.384 1.68-4.08 1.68Zm-1.224-3.864c0 .448.168.808.504 1.08.336.256.768.384 1.296.384.976 0 1.776-.304 2.4-.912.624-.624.936-1.392.936-2.304v-.528l-3.288.552c-.624.128-1.088.336-1.392.624-.304.272-.456.64-.456 1.104ZM105.554 30.36c-1.312 0-2.472-.312-3.48-.936a5.122 5.122 0 0 1-2.112-2.568l2.328-1.2c.352.704.816 1.256 1.392 1.656a3.5 3.5 0 0 0 1.944.576c.608 0 1.08-.12 1.416-.36.352-.256.528-.6.528-1.032 0-.368-.144-.672-.432-.912-.288-.256-.664-.424-1.128-.504l-2.136-.36c-1.104-.288-1.96-.776-2.568-1.464-.592-.704-.888-1.528-.888-2.472 0-.784.208-1.48.624-2.088.416-.624.992-1.104 1.728-1.44.752-.336 1.6-.504 2.544-.504 1.2 0 2.256.288 3.168.864a4.865 4.865 0 0 1 1.992 2.352l-2.328 1.2a3.084 3.084 0 0 0-1.176-1.344 3.197 3.197 0 0 0-1.752-.504c-.528 0-.952.12-1.272.36-.304.24-.456.552-.456.936 0 .704.528 1.176 1.584 1.416l2.088.384c1.104.304 1.96.8 2.568 1.488.608.688.912 1.504.912 2.448 0 .784-.216 1.48-.648 2.088-.416.608-1.008 1.08-1.776 1.416-.768.336-1.656.504-2.664.504ZM112.986 17.04h3.144v13.056h-3.144V17.04Zm-.24-3.6c0-.576.16-1.024.48-1.344.32-.32.76-.48 1.32-.48.576 0 1.024.16 1.344.48.32.32.48.768.48 1.344 0 .56-.16 1-.48 1.32-.304.32-.752.48-1.344.48-.56 0-1-.16-1.32-.48-.32-.32-.48-.76-.48-1.32ZM122.993 30.384c-1.376 0-2.472-.336-3.288-1.008-.8-.672-1.2-1.584-1.2-2.736 0-1.104.376-2.016 1.128-2.736.752-.72 1.88-1.2 3.384-1.44l3.888-.624v-.432a1.75 1.75 0 0 0-.672-1.416c-.432-.368-1.008-.552-1.728-.552-.672 0-1.272.184-1.8.552a3.083 3.083 0 0 0-1.128 1.416l-2.568-1.248c.384-1.024 1.088-1.848 2.112-2.472 1.024-.624 2.192-.936 3.504-.936 1.056 0 1.992.2 2.808.6.832.384 1.472.936 1.92 1.656.464.704.696 1.504.696 2.4v8.688h-2.976v-1.392c-1.024 1.12-2.384 1.68-4.08 1.68Zm-1.224-3.864c0 .448.168.808.504 1.08.336.256.768.384 1.296.384.976 0 1.776-.304 2.4-.912.624-.624.936-1.392.936-2.304v-.528l-3.288.552c-.624.128-1.088.336-1.392.624-.304.272-.456.64-.456 1.104Z"/><defs><clipPath id="a"><path fill="#fff" d="M0 0h42v42H0z"/></clipPath></defs></svg>